<mxfile host="app.diagrams.net" modified="2023-04-20T08:26:56.563Z" agent="Mozilla/5.0 (Windows NT 10.0; Win64; x64; rv:109.0) Gecko/20100101 Firefox/112.0" etag="jIjUNlw2sJQW1keeZR7O" version="21.2.1" type="device">
  <diagram name="Page-1" id="RAzvQW3pOOAMKx-m_3gv">
    <mxGraphModel dx="1782" dy="2820" grid="1" gridSize="10" guides="1" tooltips="1" connect="1" arrows="1" fold="1" page="1" pageScale="1" pageWidth="827" pageHeight="1169" math="0" shadow="0">
      <root>
        <mxCell id="0" />
        <mxCell id="1" parent="0" />
        <mxCell id="E72YMyqT1U3GIHxhaPFI-1" value="&lt;div align=&quot;left&quot;&gt;Front&lt;/div&gt;" style="rounded=0;whiteSpace=wrap;html=1;fillColor=#1ba1e2;fontColor=#ffffff;strokeColor=#006EAF;align=left;" vertex="1" parent="1">
          <mxGeometry x="40" y="-1060" width="120" height="20" as="geometry" />
        </mxCell>
        <mxCell id="E72YMyqT1U3GIHxhaPFI-67" style="rounded=0;orthogonalLoop=1;jettySize=auto;html=1;exitX=0.75;exitY=0;exitDx=0;exitDy=0;endArrow=none;endFill=0;" edge="1" parent="1" source="E72YMyqT1U3GIHxhaPFI-2" target="E72YMyqT1U3GIHxhaPFI-66">
          <mxGeometry relative="1" as="geometry" />
        </mxCell>
        <mxCell id="E72YMyqT1U3GIHxhaPFI-2" value="&lt;div align=&quot;left&quot;&gt;Back&lt;/div&gt;" style="rounded=0;whiteSpace=wrap;html=1;fillColor=#eeeeee;strokeColor=#36393d;align=left;" vertex="1" parent="1">
          <mxGeometry x="280" y="-1060" width="120" height="20" as="geometry" />
        </mxCell>
        <mxCell id="E72YMyqT1U3GIHxhaPFI-21" style="edgeStyle=orthogonalEdgeStyle;rounded=0;orthogonalLoop=1;jettySize=auto;html=1;entryX=0;entryY=0.5;entryDx=0;entryDy=0;dashed=1;" edge="1" parent="1" source="E72YMyqT1U3GIHxhaPFI-3" target="E72YMyqT1U3GIHxhaPFI-7">
          <mxGeometry relative="1" as="geometry">
            <Array as="points">
              <mxPoint x="180" y="-990" />
              <mxPoint x="180" y="-920" />
            </Array>
          </mxGeometry>
        </mxCell>
        <mxCell id="E72YMyqT1U3GIHxhaPFI-75" style="edgeStyle=orthogonalEdgeStyle;rounded=0;orthogonalLoop=1;jettySize=auto;html=1;exitX=1;exitY=0.25;exitDx=0;exitDy=0;entryX=0;entryY=0;entryDx=0;entryDy=0;" edge="1" parent="1" source="E72YMyqT1U3GIHxhaPFI-3" target="E72YMyqT1U3GIHxhaPFI-47">
          <mxGeometry relative="1" as="geometry">
            <Array as="points">
              <mxPoint x="190" y="-1025" />
              <mxPoint x="190" y="-840" />
            </Array>
          </mxGeometry>
        </mxCell>
        <mxCell id="E72YMyqT1U3GIHxhaPFI-76" style="edgeStyle=orthogonalEdgeStyle;rounded=0;orthogonalLoop=1;jettySize=auto;html=1;entryX=0;entryY=0.25;entryDx=0;entryDy=0;" edge="1" parent="1" source="E72YMyqT1U3GIHxhaPFI-3" target="E72YMyqT1U3GIHxhaPFI-4">
          <mxGeometry relative="1" as="geometry">
            <Array as="points">
              <mxPoint x="200" y="-1025" />
              <mxPoint x="200" y="-1025" />
            </Array>
          </mxGeometry>
        </mxCell>
        <mxCell id="E72YMyqT1U3GIHxhaPFI-3" value="Why are we here?" style="rounded=0;whiteSpace=wrap;html=1;" vertex="1" parent="1">
          <mxGeometry x="40" y="-1040" width="120" height="60" as="geometry" />
        </mxCell>
        <mxCell id="E72YMyqT1U3GIHxhaPFI-17" style="edgeStyle=orthogonalEdgeStyle;rounded=0;orthogonalLoop=1;jettySize=auto;html=1;" edge="1" parent="1" source="E72YMyqT1U3GIHxhaPFI-4" target="E72YMyqT1U3GIHxhaPFI-10">
          <mxGeometry relative="1" as="geometry">
            <Array as="points">
              <mxPoint x="420" y="-1030" />
              <mxPoint x="420" y="-1030" />
            </Array>
          </mxGeometry>
        </mxCell>
        <mxCell id="E72YMyqT1U3GIHxhaPFI-4" value="&lt;div&gt;&lt;span class=&quot;HwtZe&quot; lang=&quot;en&quot;&gt;Reference&lt;/span&gt;&lt;/div&gt;&lt;div&gt;&lt;span class=&quot;HwtZe&quot; lang=&quot;en&quot;&gt;information&lt;/span&gt;&lt;/div&gt;&lt;div&gt;&lt;span class=&quot;HwtZe&quot; lang=&quot;en&quot;&gt;&lt;/span&gt;&lt;/div&gt;" style="rounded=0;whiteSpace=wrap;html=1;" vertex="1" parent="1">
          <mxGeometry x="280" y="-1040" width="120" height="60" as="geometry" />
        </mxCell>
        <mxCell id="E72YMyqT1U3GIHxhaPFI-80" style="rounded=0;orthogonalLoop=1;jettySize=auto;html=1;exitX=1;exitY=0.5;exitDx=0;exitDy=0;entryX=0;entryY=0.5;entryDx=0;entryDy=0;endArrow=none;endFill=0;" edge="1" parent="1" source="E72YMyqT1U3GIHxhaPFI-6" target="E72YMyqT1U3GIHxhaPFI-79">
          <mxGeometry relative="1" as="geometry" />
        </mxCell>
        <mxCell id="E72YMyqT1U3GIHxhaPFI-6" value="&lt;div align=&quot;left&quot;&gt;Back&lt;/div&gt;" style="rounded=0;whiteSpace=wrap;html=1;fillColor=#eeeeee;strokeColor=#36393d;align=left;" vertex="1" parent="1">
          <mxGeometry x="440" y="-970" width="120" height="20" as="geometry" />
        </mxCell>
        <mxCell id="E72YMyqT1U3GIHxhaPFI-55" style="edgeStyle=orthogonalEdgeStyle;rounded=0;orthogonalLoop=1;jettySize=auto;html=1;entryX=0;entryY=0;entryDx=0;entryDy=52.5;entryPerimeter=0;" edge="1" parent="1" source="E72YMyqT1U3GIHxhaPFI-7" target="E72YMyqT1U3GIHxhaPFI-23">
          <mxGeometry relative="1" as="geometry" />
        </mxCell>
        <mxCell id="E72YMyqT1U3GIHxhaPFI-7" value="Data collector" style="rounded=0;whiteSpace=wrap;html=1;" vertex="1" parent="1">
          <mxGeometry x="440" y="-950" width="120" height="60" as="geometry" />
        </mxCell>
        <mxCell id="E72YMyqT1U3GIHxhaPFI-10" value="Cache" style="rounded=0;whiteSpace=wrap;html=1;" vertex="1" parent="1">
          <mxGeometry x="440" y="-1050" width="120" height="40" as="geometry" />
        </mxCell>
        <mxCell id="E72YMyqT1U3GIHxhaPFI-11" value="&lt;div align=&quot;left&quot;&gt;Front&lt;/div&gt;" style="rounded=0;whiteSpace=wrap;html=1;fillColor=#1ba1e2;fontColor=#ffffff;strokeColor=#006EAF;align=left;" vertex="1" parent="1">
          <mxGeometry x="40" y="-650" width="120" height="20" as="geometry" />
        </mxCell>
        <mxCell id="E72YMyqT1U3GIHxhaPFI-25" style="edgeStyle=orthogonalEdgeStyle;rounded=0;orthogonalLoop=1;jettySize=auto;html=1;entryX=0;entryY=0.5;entryDx=0;entryDy=0;" edge="1" parent="1" source="E72YMyqT1U3GIHxhaPFI-12" target="E72YMyqT1U3GIHxhaPFI-24">
          <mxGeometry relative="1" as="geometry" />
        </mxCell>
        <mxCell id="E72YMyqT1U3GIHxhaPFI-58" style="edgeStyle=orthogonalEdgeStyle;rounded=0;orthogonalLoop=1;jettySize=auto;html=1;" edge="1" parent="1" source="E72YMyqT1U3GIHxhaPFI-12">
          <mxGeometry relative="1" as="geometry">
            <mxPoint x="280" y="-990" as="targetPoint" />
            <Array as="points">
              <mxPoint x="240" y="-630" />
              <mxPoint x="240" y="-990" />
            </Array>
          </mxGeometry>
        </mxCell>
        <mxCell id="E72YMyqT1U3GIHxhaPFI-78" style="edgeStyle=orthogonalEdgeStyle;rounded=0;orthogonalLoop=1;jettySize=auto;html=1;exitX=1;exitY=0.25;exitDx=0;exitDy=0;entryX=0.25;entryY=1;entryDx=0;entryDy=0;" edge="1" parent="1" source="E72YMyqT1U3GIHxhaPFI-12" target="E72YMyqT1U3GIHxhaPFI-7">
          <mxGeometry relative="1" as="geometry">
            <Array as="points">
              <mxPoint x="160" y="-630" />
              <mxPoint x="240" y="-630" />
              <mxPoint x="240" y="-680" />
              <mxPoint x="470" y="-680" />
            </Array>
          </mxGeometry>
        </mxCell>
        <mxCell id="E72YMyqT1U3GIHxhaPFI-12" value="Statistics / Admin" style="rounded=0;whiteSpace=wrap;html=1;" vertex="1" parent="1">
          <mxGeometry x="40" y="-630" width="120" height="60" as="geometry" />
        </mxCell>
        <mxCell id="E72YMyqT1U3GIHxhaPFI-23" value="DB" style="shape=cylinder3;whiteSpace=wrap;html=1;boundedLbl=1;backgroundOutline=1;size=15;" vertex="1" parent="1">
          <mxGeometry x="640" y="-840" width="60" height="80" as="geometry" />
        </mxCell>
        <mxCell id="E72YMyqT1U3GIHxhaPFI-31" style="edgeStyle=orthogonalEdgeStyle;rounded=0;orthogonalLoop=1;jettySize=auto;html=1;entryX=0;entryY=0.5;entryDx=0;entryDy=0;" edge="1" parent="1" source="E72YMyqT1U3GIHxhaPFI-24" target="E72YMyqT1U3GIHxhaPFI-29">
          <mxGeometry relative="1" as="geometry" />
        </mxCell>
        <mxCell id="E72YMyqT1U3GIHxhaPFI-24" value="Report queue &lt;span class=&quot;HwtZe&quot; lang=&quot;en&quot;&gt;&lt;/span&gt;" style="rounded=0;whiteSpace=wrap;html=1;" vertex="1" parent="1">
          <mxGeometry x="210" y="-620" width="120" height="40" as="geometry" />
        </mxCell>
        <mxCell id="E72YMyqT1U3GIHxhaPFI-28" value="Back" style="rounded=0;whiteSpace=wrap;html=1;fillColor=#eeeeee;strokeColor=#36393d;" vertex="1" parent="1">
          <mxGeometry x="360" y="-650" width="120" height="20" as="geometry" />
        </mxCell>
        <mxCell id="E72YMyqT1U3GIHxhaPFI-30" style="edgeStyle=orthogonalEdgeStyle;rounded=0;orthogonalLoop=1;jettySize=auto;html=1;entryX=0;entryY=0;entryDx=0;entryDy=52.5;entryPerimeter=0;" edge="1" parent="1" source="E72YMyqT1U3GIHxhaPFI-29" target="E72YMyqT1U3GIHxhaPFI-23">
          <mxGeometry relative="1" as="geometry">
            <Array as="points">
              <mxPoint x="600" y="-600" />
              <mxPoint x="600" y="-788" />
            </Array>
          </mxGeometry>
        </mxCell>
        <mxCell id="E72YMyqT1U3GIHxhaPFI-29" value="Report builder" style="rounded=0;whiteSpace=wrap;html=1;" vertex="1" parent="1">
          <mxGeometry x="360" y="-630" width="120" height="60" as="geometry" />
        </mxCell>
        <mxCell id="E72YMyqT1U3GIHxhaPFI-35" value="&lt;div align=&quot;left&quot;&gt;Back&lt;/div&gt;" style="rounded=0;whiteSpace=wrap;html=1;fillColor=#eeeeee;strokeColor=#36393d;align=left;" vertex="1" parent="1">
          <mxGeometry x="40" y="-850" width="120" height="20" as="geometry" />
        </mxCell>
        <mxCell id="E72YMyqT1U3GIHxhaPFI-40" style="edgeStyle=orthogonalEdgeStyle;rounded=0;orthogonalLoop=1;jettySize=auto;html=1;entryX=0;entryY=0.5;entryDx=0;entryDy=0;dashed=1;" edge="1" parent="1" source="E72YMyqT1U3GIHxhaPFI-36" target="E72YMyqT1U3GIHxhaPFI-7">
          <mxGeometry relative="1" as="geometry">
            <Array as="points">
              <mxPoint x="180" y="-790" />
              <mxPoint x="180" y="-920" />
            </Array>
          </mxGeometry>
        </mxCell>
        <mxCell id="E72YMyqT1U3GIHxhaPFI-36" value="Online spy service" style="rounded=0;whiteSpace=wrap;html=1;" vertex="1" parent="1">
          <mxGeometry x="40" y="-830" width="120" height="60" as="geometry" />
        </mxCell>
        <mxCell id="E72YMyqT1U3GIHxhaPFI-37" value="Future" style="rounded=0;whiteSpace=wrap;html=1;fillColor=#ffff88;strokeColor=#36393d;" vertex="1" parent="1">
          <mxGeometry x="110" y="-850" width="50" height="20" as="geometry" />
        </mxCell>
        <mxCell id="E72YMyqT1U3GIHxhaPFI-41" value="App" style="rounded=0;whiteSpace=wrap;html=1;fillColor=#cce5ff;strokeColor=#36393d;align=left;" vertex="1" parent="1">
          <mxGeometry x="40" y="-760" width="120" height="20" as="geometry" />
        </mxCell>
        <mxCell id="E72YMyqT1U3GIHxhaPFI-45" style="edgeStyle=orthogonalEdgeStyle;rounded=0;orthogonalLoop=1;jettySize=auto;html=1;entryX=0;entryY=0.5;entryDx=0;entryDy=0;dashed=1;" edge="1" parent="1" source="E72YMyqT1U3GIHxhaPFI-42" target="E72YMyqT1U3GIHxhaPFI-7">
          <mxGeometry relative="1" as="geometry">
            <Array as="points">
              <mxPoint x="180" y="-730" />
              <mxPoint x="180" y="-920" />
            </Array>
          </mxGeometry>
        </mxCell>
        <mxCell id="E72YMyqT1U3GIHxhaPFI-54" style="edgeStyle=orthogonalEdgeStyle;rounded=0;orthogonalLoop=1;jettySize=auto;html=1;entryX=0;entryY=0.5;entryDx=0;entryDy=0;" edge="1" parent="1" source="E72YMyqT1U3GIHxhaPFI-42" target="E72YMyqT1U3GIHxhaPFI-4">
          <mxGeometry relative="1" as="geometry">
            <Array as="points">
              <mxPoint x="210" y="-710" />
              <mxPoint x="210" y="-1010" />
            </Array>
          </mxGeometry>
        </mxCell>
        <mxCell id="E72YMyqT1U3GIHxhaPFI-77" style="edgeStyle=orthogonalEdgeStyle;rounded=0;orthogonalLoop=1;jettySize=auto;html=1;entryX=0;entryY=0.75;entryDx=0;entryDy=0;" edge="1" parent="1" source="E72YMyqT1U3GIHxhaPFI-42" target="E72YMyqT1U3GIHxhaPFI-47">
          <mxGeometry relative="1" as="geometry">
            <Array as="points">
              <mxPoint x="210" y="-710" />
              <mxPoint x="210" y="-795" />
            </Array>
          </mxGeometry>
        </mxCell>
        <mxCell id="E72YMyqT1U3GIHxhaPFI-42" value="Mobile app" style="rounded=0;whiteSpace=wrap;html=1;" vertex="1" parent="1">
          <mxGeometry x="40" y="-740" width="120" height="60" as="geometry" />
        </mxCell>
        <mxCell id="E72YMyqT1U3GIHxhaPFI-43" value="Future" style="rounded=0;whiteSpace=wrap;html=1;fillColor=#ffff88;strokeColor=#36393d;" vertex="1" parent="1">
          <mxGeometry x="110" y="-760" width="50" height="20" as="geometry" />
        </mxCell>
        <mxCell id="E72YMyqT1U3GIHxhaPFI-46" value="&lt;div align=&quot;left&quot;&gt;Back&lt;br&gt;&lt;/div&gt;" style="rounded=0;whiteSpace=wrap;html=1;fillColor=#eeeeee;strokeColor=#36393d;align=left;" vertex="1" parent="1">
          <mxGeometry x="280" y="-860" width="120" height="20" as="geometry" />
        </mxCell>
        <mxCell id="E72YMyqT1U3GIHxhaPFI-48" style="edgeStyle=orthogonalEdgeStyle;rounded=0;orthogonalLoop=1;jettySize=auto;html=1;entryX=0;entryY=0.5;entryDx=0;entryDy=0;dashed=1;" edge="1" parent="1" source="E72YMyqT1U3GIHxhaPFI-47" target="E72YMyqT1U3GIHxhaPFI-7">
          <mxGeometry relative="1" as="geometry" />
        </mxCell>
        <mxCell id="E72YMyqT1U3GIHxhaPFI-74" style="edgeStyle=orthogonalEdgeStyle;rounded=0;orthogonalLoop=1;jettySize=auto;html=1;" edge="1" parent="1" source="E72YMyqT1U3GIHxhaPFI-47" target="E72YMyqT1U3GIHxhaPFI-4">
          <mxGeometry relative="1" as="geometry">
            <mxPoint x="390" y="-940" as="targetPoint" />
            <Array as="points">
              <mxPoint x="410" y="-810" />
              <mxPoint x="410" y="-960" />
              <mxPoint x="390" y="-960" />
            </Array>
          </mxGeometry>
        </mxCell>
        <mxCell id="E72YMyqT1U3GIHxhaPFI-47" value="Travel plan (or something)" style="rounded=0;whiteSpace=wrap;html=1;" vertex="1" parent="1">
          <mxGeometry x="280" y="-840" width="120" height="60" as="geometry" />
        </mxCell>
        <mxCell id="E72YMyqT1U3GIHxhaPFI-60" style="rounded=0;orthogonalLoop=1;jettySize=auto;html=1;exitX=0.5;exitY=1;exitDx=0;exitDy=0;entryX=0;entryY=0.5;entryDx=0;entryDy=0;endArrow=none;endFill=0;" edge="1" parent="1" source="E72YMyqT1U3GIHxhaPFI-59" target="E72YMyqT1U3GIHxhaPFI-1">
          <mxGeometry relative="1" as="geometry" />
        </mxCell>
        <mxCell id="E72YMyqT1U3GIHxhaPFI-59" value="&lt;div&gt;What visit in Izumo?&lt;/div&gt;&lt;div&gt;What is near me?&lt;/div&gt;&lt;div&gt;How to get there?&lt;br&gt;&lt;/div&gt;&lt;div&gt;&lt;br&gt;&lt;/div&gt;&lt;div&gt;You may also visit...&lt;/div&gt;&lt;div&gt;You may create list of places...&lt;br&gt;&lt;/div&gt;&lt;div&gt;&lt;br&gt;&lt;/div&gt;" style="rounded=0;whiteSpace=wrap;html=1;fillColor=#f9f7ed;strokeColor=#36393d;dashed=1;dashPattern=1 1;" vertex="1" parent="1">
          <mxGeometry x="-120" y="-1200" width="190" height="110" as="geometry" />
        </mxCell>
        <mxCell id="E72YMyqT1U3GIHxhaPFI-62" style="rounded=0;orthogonalLoop=1;jettySize=auto;html=1;exitX=0.75;exitY=1;exitDx=0;exitDy=0;entryX=0;entryY=0.75;entryDx=0;entryDy=0;endArrow=none;endFill=0;" edge="1" parent="1" source="E72YMyqT1U3GIHxhaPFI-61" target="E72YMyqT1U3GIHxhaPFI-35">
          <mxGeometry relative="1" as="geometry" />
        </mxCell>
        <mxCell id="E72YMyqT1U3GIHxhaPFI-61" value="&lt;div&gt;General data-mining from open sources (public sites, social networks, etc)&lt;/div&gt;&lt;div&gt;Hotel stats.&lt;br&gt;&lt;/div&gt;" style="rounded=0;whiteSpace=wrap;html=1;fillColor=#f9f7ed;strokeColor=#36393d;dashed=1;dashPattern=1 1;" vertex="1" parent="1">
          <mxGeometry x="-190" y="-950" width="190" height="80" as="geometry" />
        </mxCell>
        <mxCell id="E72YMyqT1U3GIHxhaPFI-65" style="rounded=0;orthogonalLoop=1;jettySize=auto;html=1;exitX=0;exitY=0.5;exitDx=0;exitDy=0;entryX=0.75;entryY=1;entryDx=0;entryDy=0;endArrow=none;endFill=0;" edge="1" parent="1" source="E72YMyqT1U3GIHxhaPFI-64" target="E72YMyqT1U3GIHxhaPFI-47">
          <mxGeometry relative="1" as="geometry" />
        </mxCell>
        <mxCell id="E72YMyqT1U3GIHxhaPFI-64" value="No login (unique url)" style="rounded=0;whiteSpace=wrap;html=1;fillColor=#f9f7ed;strokeColor=#36393d;dashed=1;dashPattern=1 1;" vertex="1" parent="1">
          <mxGeometry x="280" y="-750" width="120" height="40" as="geometry" />
        </mxCell>
        <mxCell id="E72YMyqT1U3GIHxhaPFI-66" value="&lt;div&gt;Static information&lt;br&gt;&lt;/div&gt;&lt;div&gt;Recommendations&lt;br&gt;&lt;/div&gt;&lt;div&gt;Route builder&lt;br&gt;&lt;/div&gt;" style="rounded=0;whiteSpace=wrap;html=1;fillColor=#f9f7ed;strokeColor=#36393d;dashed=1;dashPattern=1 1;" vertex="1" parent="1">
          <mxGeometry x="354" y="-1160" width="120" height="50" as="geometry" />
        </mxCell>
        <mxCell id="E72YMyqT1U3GIHxhaPFI-69" style="rounded=0;orthogonalLoop=1;jettySize=auto;html=1;exitX=1;exitY=0.5;exitDx=0;exitDy=0;endArrow=none;endFill=0;" edge="1" parent="1" source="E72YMyqT1U3GIHxhaPFI-68" target="E72YMyqT1U3GIHxhaPFI-42">
          <mxGeometry relative="1" as="geometry" />
        </mxCell>
        <mxCell id="E72YMyqT1U3GIHxhaPFI-68" value="&lt;div&gt;Same as &quot;Why are we here?&quot;&lt;/div&gt;&lt;div&gt;+ extra tracking &lt;br&gt;&lt;/div&gt;" style="rounded=0;whiteSpace=wrap;html=1;fillColor=#f9f7ed;strokeColor=#36393d;dashed=1;dashPattern=1 1;" vertex="1" parent="1">
          <mxGeometry x="-230" y="-800" width="190" height="70" as="geometry" />
        </mxCell>
        <mxCell id="E72YMyqT1U3GIHxhaPFI-71" style="rounded=0;orthogonalLoop=1;jettySize=auto;html=1;exitX=1;exitY=0.5;exitDx=0;exitDy=0;entryX=0;entryY=0.5;entryDx=0;entryDy=0;endArrow=none;endFill=0;" edge="1" parent="1" source="E72YMyqT1U3GIHxhaPFI-70" target="E72YMyqT1U3GIHxhaPFI-11">
          <mxGeometry relative="1" as="geometry" />
        </mxCell>
        <mxCell id="E72YMyqT1U3GIHxhaPFI-70" value="&lt;div&gt;Add / Update / Delete places&lt;/div&gt;&lt;div&gt;&lt;br&gt;&lt;/div&gt;&lt;div&gt;Request reports&lt;/div&gt;&lt;div&gt;&lt;br&gt;&lt;/div&gt;&lt;div&gt;Add extra statistics (hotels, buses, airlines, on-site reports, etc&lt;span class=&quot;HwtZe&quot; lang=&quot;en&quot;&gt;&lt;/span&gt;) &lt;br&gt;&lt;/div&gt;" style="rounded=0;whiteSpace=wrap;html=1;fillColor=#f9f7ed;strokeColor=#36393d;dashed=1;dashPattern=1 1;" vertex="1" parent="1">
          <mxGeometry x="-270" y="-700" width="230" height="90" as="geometry" />
        </mxCell>
        <mxCell id="E72YMyqT1U3GIHxhaPFI-73" style="rounded=0;orthogonalLoop=1;jettySize=auto;html=1;entryX=0.25;entryY=1;entryDx=0;entryDy=0;endArrow=none;endFill=0;" edge="1" parent="1" source="E72YMyqT1U3GIHxhaPFI-72" target="E72YMyqT1U3GIHxhaPFI-29">
          <mxGeometry relative="1" as="geometry" />
        </mxCell>
        <mxCell id="E72YMyqT1U3GIHxhaPFI-72" value="&lt;div&gt;Are people talking about Izumo / places in Izumo?&lt;/div&gt;&lt;div&gt;Are people viewing pages about places in Izumo?&lt;/div&gt;&lt;div&gt;Are people creating lists?&lt;/div&gt;&lt;div&gt;Are they checking places in checlists?&lt;br&gt;&lt;/div&gt;&lt;div&gt;Are they visiting places (Geo-trancking)?&lt;/div&gt;&lt;div&gt;From where they visiting website? &lt;br&gt;&lt;/div&gt;&lt;div&gt;&lt;br&gt;&lt;/div&gt;&lt;div&gt;Hot places? Cold places? &lt;br&gt;&lt;/div&gt;&lt;div&gt;What places are easy / hard / unacsesable? &lt;br&gt;&lt;/div&gt;" style="rounded=0;whiteSpace=wrap;html=1;fillColor=#f9f7ed;strokeColor=#36393d;dashed=1;dashPattern=1 1;" vertex="1" parent="1">
          <mxGeometry x="130" y="-490" width="320" height="160" as="geometry" />
        </mxCell>
        <mxCell id="E72YMyqT1U3GIHxhaPFI-79" value="&lt;div&gt;Who?&lt;/div&gt;&lt;div&gt;From where?&lt;/div&gt;&lt;div&gt;What?&lt;/div&gt;&lt;div&gt;How much?&lt;/div&gt;" style="rounded=0;whiteSpace=wrap;html=1;fillColor=#f9f7ed;strokeColor=#36393d;dashed=1;dashPattern=1 1;" vertex="1" parent="1">
          <mxGeometry x="630" y="-1070" width="120" height="80" as="geometry" />
        </mxCell>
      </root>
    </mxGraphModel>
  </diagram>
</mxfile>
